<?xml version="1.0" encoding="iso-8859-1"?>
<!-- Uploaded to: SVG Repo, www.svgrepo.com, Generator: SVG Repo Mixer Tools -->
<svg height="800px" width="800px" version="1.1" id="Layer_1" xmlns="http://www.w3.org/2000/svg" xmlns:xlink="http://www.w3.org/1999/xlink" 
	 viewBox="0 0 512 512" xml:space="preserve">
<path d="M176.6,238.3c0,4.9-4,8.8-8.8,8.8s-8.8-4-8.8-8.8c0-4.9,4-8.8,8.8-8.8S176.6,233.5,176.6,238.3"/>
<path style="fill:#38454F;" d="M512,256c0,141.4-114.6,256-256,256S0,397.4,0,256S114.6,0,256,0S512,114.6,512,256"/>
<path style="fill:#434C6D;" d="M256,256c0-56.7,6.9-110.2,19-157.7c-6.3-0.7-12.6-1.2-19-1.2c-87.8,0-158.9,71.1-158.9,158.9
	S168.2,414.9,256,414.9c6.5,0,12.8-0.5,19-1.2C262.9,366.2,256,312.7,256,256"/>
<path style="fill:#7383BF;" d="M256,421.9c-91.5,0-165.9-74.4-165.9-165.9S164.5,90.1,256,90.1c6.1,0,12.4,0.4,19.9,1.3l7.9,0.9
	l-2,7.7C269.3,148.8,263,201.3,263,256s6.3,107.2,18.8,155.9l2,7.7l-7.9,0.9C268.4,421.5,262.1,421.9,256,421.9z M256,104.1
	c-83.8,0-151.9,68.1-151.9,151.9S172.2,407.9,256,407.9c3.3,0,6.7-0.1,10.3-0.4C254.8,359.8,249,308.9,249,256s5.8-103.8,17.3-151.5
	C262.7,104.2,259.3,104.1,256,104.1z"/>
<path style="fill:#FFFFFF;" d="M158.9,220.7c-4.9,0-8.8-3.9-8.8-8.8c0-34.1,27.7-61.8,61.8-61.8c4.9,0,8.8,3.9,8.8,8.8
	c0,4.9-3.9,8.8-8.8,8.8c-24.3,0-44.1,19.8-44.1,44.1C167.7,216.7,163.8,220.7,158.9,220.7"/>
<path style="fill:#283238;" d="M302.4,5.6c-34.1,64-55.2,152.5-55.2,250.4s21.1,186.4,55.2,250.4C422.1,481.8,512,379.1,512,256
	S422.1,30.2,302.4,5.6"/>
</svg>